G04 #@! TF.GenerationSoftware,KiCad,Pcbnew,(6.0.10)*
G04 #@! TF.CreationDate,2023-02-16T19:15:59+01:00*
G04 #@! TF.ProjectId,kuro65,6b75726f-3635-42e6-9b69-6361645f7063,rev?*
G04 #@! TF.SameCoordinates,Original*
G04 #@! TF.FileFunction,Profile,NP*
%FSLAX46Y46*%
G04 Gerber Fmt 4.6, Leading zero omitted, Abs format (unit mm)*
G04 Created by KiCad (PCBNEW (6.0.10)) date 2023-02-16 19:15:59*
%MOMM*%
%LPD*%
G01*
G04 APERTURE LIST*
G04 #@! TA.AperFunction,Profile*
%ADD10C,0.150000*%
G04 #@! TD*
G04 APERTURE END LIST*
D10*
X0Y-92500000D02*
X0Y-1000000D01*
X301000000Y-93500000D02*
G75*
G03*
X302000000Y-92500000I0J1000000D01*
G01*
X0Y-92500000D02*
G75*
G03*
X1000000Y-93500000I1000000J0D01*
G01*
X1000000Y0D02*
G75*
G03*
X0Y-1000000I3J-1000003D01*
G01*
X302000000Y-92500000D02*
X302000000Y-1000000D01*
X302000000Y-1000000D02*
G75*
G03*
X301000000Y0I-1000000J0D01*
G01*
X1000000Y0D02*
X301000000Y0D01*
X1000000Y-93500000D02*
X301000000Y-93500000D01*
X25250000Y-1920000D02*
X25250000Y-5120000D01*
X25250000Y-1920000D02*
X28850000Y-1920000D01*
X25250000Y-5120000D02*
X28850000Y-5120000D01*
X28850000Y-1920000D02*
X28850000Y-5120000D01*
X138387500Y-50180000D02*
X138387500Y-53380000D01*
X134787500Y-53380000D02*
X138387500Y-53380000D01*
X134787500Y-50180000D02*
X138387500Y-50180000D01*
X134787500Y-50180000D02*
X134787500Y-53380000D01*
X276500000Y-72430000D02*
X272900000Y-72430000D01*
X276500000Y-72430000D02*
X276500000Y-69230000D01*
X276500000Y-69230000D02*
X272900000Y-69230000D01*
X272900000Y-72430000D02*
X272900000Y-69230000D01*
X81237500Y-50180000D02*
X81237500Y-53380000D01*
X77637500Y-53380000D02*
X81237500Y-53380000D01*
X77637500Y-50180000D02*
X81237500Y-50180000D01*
X77637500Y-50180000D02*
X77637500Y-53380000D01*
X110975000Y-34330000D02*
X110975000Y-31130000D01*
X114575000Y-34330000D02*
X114575000Y-31130000D01*
X114575000Y-31130000D02*
X110975000Y-31130000D01*
X114575000Y-34330000D02*
X110975000Y-34330000D01*
X295550000Y-50180000D02*
X295550000Y-53380000D01*
X291950000Y-53380000D02*
X295550000Y-53380000D01*
X291950000Y-50180000D02*
X291950000Y-53380000D01*
X291950000Y-50180000D02*
X295550000Y-50180000D01*
X266975000Y-12080000D02*
X266975000Y-15280000D01*
X263375000Y-12080000D02*
X266975000Y-12080000D01*
X263375000Y-12080000D02*
X263375000Y-15280000D01*
X263375000Y-15280000D02*
X266975000Y-15280000D01*
X153837500Y-53380000D02*
X157437500Y-53380000D01*
X153837500Y-50180000D02*
X157437500Y-50180000D01*
X153837500Y-50180000D02*
X153837500Y-53380000D01*
X157437500Y-50180000D02*
X157437500Y-53380000D01*
X295550000Y-72430000D02*
X295550000Y-69230000D01*
X295550000Y-72430000D02*
X291950000Y-72430000D01*
X291950000Y-72430000D02*
X291950000Y-69230000D01*
X295550000Y-69230000D02*
X291950000Y-69230000D01*
X44300000Y-12080000D02*
X44300000Y-15280000D01*
X47900000Y-12080000D02*
X47900000Y-15280000D01*
X44300000Y-15280000D02*
X47900000Y-15280000D01*
X44300000Y-12080000D02*
X47900000Y-12080000D01*
X244325000Y-34330000D02*
X244325000Y-31130000D01*
X247925000Y-34330000D02*
X247925000Y-31130000D01*
X247925000Y-34330000D02*
X244325000Y-34330000D01*
X247925000Y-31130000D02*
X244325000Y-31130000D01*
X230037500Y-53380000D02*
X233637500Y-53380000D01*
X230037500Y-50180000D02*
X230037500Y-53380000D01*
X230037500Y-50180000D02*
X233637500Y-50180000D01*
X233637500Y-50180000D02*
X233637500Y-53380000D01*
X90762500Y-72430000D02*
X90762500Y-69230000D01*
X90762500Y-69230000D02*
X87162500Y-69230000D01*
X87162500Y-72430000D02*
X87162500Y-69230000D01*
X90762500Y-72430000D02*
X87162500Y-72430000D01*
X166962500Y-72430000D02*
X163362500Y-72430000D01*
X166962500Y-69230000D02*
X163362500Y-69230000D01*
X166962500Y-72430000D02*
X166962500Y-69230000D01*
X163362500Y-72430000D02*
X163362500Y-69230000D01*
X133625000Y-31130000D02*
X130025000Y-31130000D01*
X133625000Y-34330000D02*
X130025000Y-34330000D01*
X133625000Y-34330000D02*
X133625000Y-31130000D01*
X130025000Y-34330000D02*
X130025000Y-31130000D01*
X127643750Y-88280000D02*
X131243750Y-88280000D01*
X127643750Y-88280000D02*
X127643750Y-91480000D01*
X131243750Y-88280000D02*
X131243750Y-91480000D01*
X127643750Y-91480000D02*
X131243750Y-91480000D01*
X186012500Y-69230000D02*
X182412500Y-69230000D01*
X182412500Y-72430000D02*
X182412500Y-69230000D01*
X186012500Y-72430000D02*
X182412500Y-72430000D01*
X186012500Y-72430000D02*
X186012500Y-69230000D01*
X115737500Y-53380000D02*
X119337500Y-53380000D01*
X119337500Y-50180000D02*
X119337500Y-53380000D01*
X115737500Y-50180000D02*
X119337500Y-50180000D01*
X115737500Y-50180000D02*
X115737500Y-53380000D01*
X196700000Y-15280000D02*
X200300000Y-15280000D01*
X200300000Y-12080000D02*
X200300000Y-15280000D01*
X196700000Y-12080000D02*
X200300000Y-12080000D01*
X196700000Y-12080000D02*
X196700000Y-15280000D01*
X109812500Y-69230000D02*
X106212500Y-69230000D01*
X109812500Y-72430000D02*
X106212500Y-72430000D01*
X109812500Y-72430000D02*
X109812500Y-69230000D01*
X106212500Y-72430000D02*
X106212500Y-69230000D01*
X295550000Y-34330000D02*
X295550000Y-31130000D01*
X291950000Y-34330000D02*
X291950000Y-31130000D01*
X295550000Y-31130000D02*
X291950000Y-31130000D01*
X295550000Y-34330000D02*
X291950000Y-34330000D01*
X238400000Y-88280000D02*
X238400000Y-91480000D01*
X234800000Y-88280000D02*
X238400000Y-88280000D01*
X234800000Y-91480000D02*
X238400000Y-91480000D01*
X234800000Y-88280000D02*
X234800000Y-91480000D01*
X82400000Y-12080000D02*
X82400000Y-15280000D01*
X82400000Y-15280000D02*
X86000000Y-15280000D01*
X82400000Y-12080000D02*
X86000000Y-12080000D01*
X86000000Y-12080000D02*
X86000000Y-15280000D01*
X68112500Y-72430000D02*
X68112500Y-69230000D01*
X71712500Y-69230000D02*
X68112500Y-69230000D01*
X71712500Y-72430000D02*
X71712500Y-69230000D01*
X71712500Y-72430000D02*
X68112500Y-72430000D01*
X101450000Y-15280000D02*
X105050000Y-15280000D01*
X101450000Y-12080000D02*
X101450000Y-15280000D01*
X105050000Y-12080000D02*
X105050000Y-15280000D01*
X101450000Y-12080000D02*
X105050000Y-12080000D01*
X215750000Y-91480000D02*
X219350000Y-91480000D01*
X215750000Y-88280000D02*
X219350000Y-88280000D01*
X215750000Y-88280000D02*
X215750000Y-91480000D01*
X219350000Y-88280000D02*
X219350000Y-91480000D01*
X295550000Y-12080000D02*
X295550000Y-15280000D01*
X291950000Y-12080000D02*
X291950000Y-15280000D01*
X291950000Y-15280000D02*
X295550000Y-15280000D01*
X291950000Y-12080000D02*
X295550000Y-12080000D01*
X147912500Y-72430000D02*
X147912500Y-69230000D01*
X144312500Y-72430000D02*
X144312500Y-69230000D01*
X147912500Y-72430000D02*
X144312500Y-72430000D01*
X147912500Y-69230000D02*
X144312500Y-69230000D01*
X210987500Y-50180000D02*
X210987500Y-53380000D01*
X210987500Y-50180000D02*
X214587500Y-50180000D01*
X210987500Y-53380000D02*
X214587500Y-53380000D01*
X214587500Y-50180000D02*
X214587500Y-53380000D01*
X176487500Y-50180000D02*
X176487500Y-53380000D01*
X172887500Y-50180000D02*
X172887500Y-53380000D01*
X172887500Y-50180000D02*
X176487500Y-50180000D01*
X172887500Y-53380000D02*
X176487500Y-53380000D01*
X14562500Y-31130000D02*
X10962500Y-31130000D01*
X14562500Y-34330000D02*
X14562500Y-31130000D01*
X14562500Y-34330000D02*
X10962500Y-34330000D01*
X10962500Y-34330000D02*
X10962500Y-31130000D01*
X128862500Y-72430000D02*
X125262500Y-72430000D01*
X128862500Y-72430000D02*
X128862500Y-69230000D01*
X128862500Y-69230000D02*
X125262500Y-69230000D01*
X125262500Y-72430000D02*
X125262500Y-69230000D01*
X234800000Y-12080000D02*
X234800000Y-15280000D01*
X238400000Y-12080000D02*
X238400000Y-15280000D01*
X234800000Y-12080000D02*
X238400000Y-12080000D01*
X234800000Y-15280000D02*
X238400000Y-15280000D01*
X57425000Y-34330000D02*
X57425000Y-31130000D01*
X57425000Y-34330000D02*
X53825000Y-34330000D01*
X53825000Y-34330000D02*
X53825000Y-31130000D01*
X57425000Y-31130000D02*
X53825000Y-31130000D01*
X9800000Y-1920000D02*
X9800000Y-5120000D01*
X6200000Y-1920000D02*
X9800000Y-1920000D01*
X6200000Y-5120000D02*
X9800000Y-5120000D01*
X6200000Y-1920000D02*
X6200000Y-5120000D01*
X250306250Y-72430000D02*
X250306250Y-69230000D01*
X250306250Y-72430000D02*
X246706250Y-72430000D01*
X250306250Y-69230000D02*
X246706250Y-69230000D01*
X246706250Y-72430000D02*
X246706250Y-69230000D01*
X191937500Y-50180000D02*
X195537500Y-50180000D01*
X191937500Y-53380000D02*
X195537500Y-53380000D01*
X191937500Y-50180000D02*
X191937500Y-53380000D01*
X195537500Y-50180000D02*
X195537500Y-53380000D01*
X270518750Y-43855000D02*
X274118750Y-43855000D01*
X274118750Y-40655000D02*
X274118750Y-43855000D01*
X270518750Y-40655000D02*
X274118750Y-40655000D01*
X270518750Y-40655000D02*
X270518750Y-43855000D01*
X96687500Y-50180000D02*
X96687500Y-53380000D01*
X100287500Y-50180000D02*
X100287500Y-53380000D01*
X96687500Y-53380000D02*
X100287500Y-53380000D01*
X96687500Y-50180000D02*
X100287500Y-50180000D01*
X52662500Y-69230000D02*
X49062500Y-69230000D01*
X49062500Y-72430000D02*
X49062500Y-69230000D01*
X52662500Y-72430000D02*
X49062500Y-72430000D01*
X52662500Y-72430000D02*
X52662500Y-69230000D01*
X12181250Y-91480000D02*
X8581250Y-91480000D01*
X12181250Y-91480000D02*
X12181250Y-88280000D01*
X12181250Y-88280000D02*
X8581250Y-88280000D01*
X8581250Y-91480000D02*
X8581250Y-88280000D01*
X33612500Y-72430000D02*
X30012500Y-72430000D01*
X30012500Y-72430000D02*
X30012500Y-69230000D01*
X33612500Y-72430000D02*
X33612500Y-69230000D01*
X33612500Y-69230000D02*
X30012500Y-69230000D01*
X177650000Y-12080000D02*
X181250000Y-12080000D01*
X177650000Y-12080000D02*
X177650000Y-15280000D01*
X181250000Y-12080000D02*
X181250000Y-15280000D01*
X177650000Y-15280000D02*
X181250000Y-15280000D01*
X291950000Y-91480000D02*
X295550000Y-91480000D01*
X291950000Y-88280000D02*
X295550000Y-88280000D01*
X295550000Y-88280000D02*
X295550000Y-91480000D01*
X291950000Y-88280000D02*
X291950000Y-91480000D01*
X139550000Y-15280000D02*
X143150000Y-15280000D01*
X143150000Y-12080000D02*
X143150000Y-15280000D01*
X139550000Y-12080000D02*
X139550000Y-15280000D01*
X139550000Y-12080000D02*
X143150000Y-12080000D01*
X220512500Y-72430000D02*
X220512500Y-69230000D01*
X224112500Y-72430000D02*
X220512500Y-72430000D01*
X224112500Y-69230000D02*
X220512500Y-69230000D01*
X224112500Y-72430000D02*
X224112500Y-69230000D01*
X152675000Y-34330000D02*
X149075000Y-34330000D01*
X152675000Y-34330000D02*
X152675000Y-31130000D01*
X152675000Y-31130000D02*
X149075000Y-31130000D01*
X149075000Y-34330000D02*
X149075000Y-31130000D01*
X158600000Y-12080000D02*
X158600000Y-15280000D01*
X162200000Y-12080000D02*
X162200000Y-15280000D01*
X158600000Y-15280000D02*
X162200000Y-15280000D01*
X158600000Y-12080000D02*
X162200000Y-12080000D01*
X59806250Y-91480000D02*
X59806250Y-88280000D01*
X59806250Y-91480000D02*
X56206250Y-91480000D01*
X56206250Y-91480000D02*
X56206250Y-88280000D01*
X59806250Y-88280000D02*
X56206250Y-88280000D01*
X34775000Y-34330000D02*
X34775000Y-31130000D01*
X38375000Y-34330000D02*
X38375000Y-31130000D01*
X38375000Y-34330000D02*
X34775000Y-34330000D01*
X38375000Y-31130000D02*
X34775000Y-31130000D01*
X120500000Y-12080000D02*
X124100000Y-12080000D01*
X120500000Y-12080000D02*
X120500000Y-15280000D01*
X120500000Y-15280000D02*
X124100000Y-15280000D01*
X124100000Y-12080000D02*
X124100000Y-15280000D01*
X13343750Y-50180000D02*
X13343750Y-53380000D01*
X13343750Y-53380000D02*
X16943750Y-53380000D01*
X13343750Y-50180000D02*
X16943750Y-50180000D01*
X16943750Y-50180000D02*
X16943750Y-53380000D01*
X95525000Y-34330000D02*
X95525000Y-31130000D01*
X91925000Y-34330000D02*
X91925000Y-31130000D01*
X95525000Y-31130000D02*
X91925000Y-31130000D01*
X95525000Y-34330000D02*
X91925000Y-34330000D01*
X228875000Y-31130000D02*
X225275000Y-31130000D01*
X228875000Y-34330000D02*
X228875000Y-31130000D01*
X225275000Y-34330000D02*
X225275000Y-31130000D01*
X228875000Y-34330000D02*
X225275000Y-34330000D01*
X32393750Y-91480000D02*
X32393750Y-88280000D01*
X35993750Y-88280000D02*
X32393750Y-88280000D01*
X35993750Y-91480000D02*
X32393750Y-91480000D01*
X35993750Y-91480000D02*
X35993750Y-88280000D01*
X190775000Y-34330000D02*
X187175000Y-34330000D01*
X190775000Y-34330000D02*
X190775000Y-31130000D01*
X190775000Y-31130000D02*
X187175000Y-31130000D01*
X187175000Y-34330000D02*
X187175000Y-31130000D01*
X249087500Y-50180000D02*
X252687500Y-50180000D01*
X249087500Y-50180000D02*
X249087500Y-53380000D01*
X249087500Y-53380000D02*
X252687500Y-53380000D01*
X252687500Y-50180000D02*
X252687500Y-53380000D01*
X253850000Y-91480000D02*
X257450000Y-91480000D01*
X253850000Y-88280000D02*
X253850000Y-91480000D01*
X257450000Y-88280000D02*
X257450000Y-91480000D01*
X253850000Y-88280000D02*
X257450000Y-88280000D01*
X206225000Y-34330000D02*
X206225000Y-31130000D01*
X209825000Y-31130000D02*
X206225000Y-31130000D01*
X209825000Y-34330000D02*
X209825000Y-31130000D01*
X209825000Y-34330000D02*
X206225000Y-34330000D01*
X63350000Y-12080000D02*
X63350000Y-15280000D01*
X63350000Y-15280000D02*
X66950000Y-15280000D01*
X63350000Y-12080000D02*
X66950000Y-12080000D01*
X66950000Y-12080000D02*
X66950000Y-15280000D01*
X272900000Y-91480000D02*
X276500000Y-91480000D01*
X276500000Y-88280000D02*
X276500000Y-91480000D01*
X272900000Y-88280000D02*
X272900000Y-91480000D01*
X272900000Y-88280000D02*
X276500000Y-88280000D01*
X72875000Y-34330000D02*
X72875000Y-31130000D01*
X76475000Y-34330000D02*
X72875000Y-34330000D01*
X76475000Y-31130000D02*
X72875000Y-31130000D01*
X76475000Y-34330000D02*
X76475000Y-31130000D01*
X171725000Y-31130000D02*
X168125000Y-31130000D01*
X168125000Y-34330000D02*
X168125000Y-31130000D01*
X171725000Y-34330000D02*
X168125000Y-34330000D01*
X171725000Y-34330000D02*
X171725000Y-31130000D01*
X43137500Y-50180000D02*
X43137500Y-53380000D01*
X39537500Y-50180000D02*
X43137500Y-50180000D01*
X39537500Y-50180000D02*
X39537500Y-53380000D01*
X39537500Y-53380000D02*
X43137500Y-53380000D01*
X8581250Y-69230000D02*
X8581250Y-72430000D01*
X8581250Y-72430000D02*
X12181250Y-72430000D01*
X12181250Y-69230000D02*
X12181250Y-72430000D01*
X8581250Y-69230000D02*
X12181250Y-69230000D01*
X219350000Y-12080000D02*
X219350000Y-15280000D01*
X215750000Y-12080000D02*
X215750000Y-15280000D01*
X215750000Y-15280000D02*
X219350000Y-15280000D01*
X215750000Y-12080000D02*
X219350000Y-12080000D01*
X58587500Y-50180000D02*
X62187500Y-50180000D01*
X58587500Y-50180000D02*
X58587500Y-53380000D01*
X58587500Y-53380000D02*
X62187500Y-53380000D01*
X62187500Y-50180000D02*
X62187500Y-53380000D01*
X196700000Y-88280000D02*
X200300000Y-88280000D01*
X196700000Y-88280000D02*
X196700000Y-91480000D01*
X200300000Y-88280000D02*
X200300000Y-91480000D01*
X196700000Y-91480000D02*
X200300000Y-91480000D01*
X205062500Y-72430000D02*
X201462500Y-72430000D01*
X205062500Y-72430000D02*
X205062500Y-69230000D01*
X205062500Y-69230000D02*
X201462500Y-69230000D01*
X201462500Y-72430000D02*
X201462500Y-69230000D01*
M02*
