M48
; DRILL file {KiCad (6.0.10)} date Thu Feb 16 19:17:14 2023
; FORMAT={-:-/ absolute / metric / decimal}
; #@! TF.CreationDate,2023-02-16T19:17:14+01:00
; #@! TF.GenerationSoftware,Kicad,Pcbnew,(6.0.10)
; #@! TF.FileFunction,Plated,1,2,PTH
FMAT,2
METRIC
; #@! TA.AperFunction,Plated,PTH,ComponentDrill
T1C0.200
; #@! TA.AperFunction,Plated,PTH,ViaDrill
T2C0.300
; #@! TA.AperFunction,Plated,PTH,ViaDrill
T3C0.400
; #@! TA.AperFunction,Plated,PTH,ComponentDrill
T4C0.600
; #@! TA.AperFunction,Plated,PTH,ComponentDrill
T5C1.000
; #@! TA.AperFunction,Plated,PTH,ComponentDrill
T6C2.500
%
G90
G05
T1
X95.177Y-82.8
X96.007Y-81.969
X96.007Y-83.631
X96.838Y-81.138
X96.838Y-82.8
X96.838Y-84.462
X97.669Y-80.307
X97.669Y-81.969
X97.669Y-83.631
X97.669Y-85.293
X98.5Y-79.477
X98.5Y-81.138
X98.5Y-82.8
X98.5Y-84.462
X98.5Y-86.123
X99.331Y-80.307
X99.331Y-81.969
X99.331Y-83.631
X99.331Y-85.293
X100.162Y-81.138
X100.162Y-82.8
X100.162Y-84.462
X100.993Y-81.969
X100.993Y-83.631
X101.823Y-82.8
T2
X1.7Y-6.4
X2.4Y-2.7
X2.4Y-5.8
X2.4Y-6.9
X2.4Y-25.3
X2.4Y-88.8
X2.4Y-89.6
X2.9Y-44.6
X2.9Y-45.6
X2.9Y-46.6
X3.2Y-2.2
X3.2Y-3.2
X4.5Y-86.7
X5.1Y-69.9
X5.8Y-69.5
X5.8Y-70.4
X5.8Y-86.7
X5.8Y-92.3
X7.1Y-60.4
X7.8Y-22.2
X8.784Y-79.512
X8.8Y-11.5
X9.9Y-51.0
X10.1Y-13.8
X10.1Y-14.6
X10.4Y-74.7
X10.6Y-50.5
X10.6Y-51.4
X11.1Y-8.9
X12.4Y-7.1
X13.5Y-17.7
X13.5Y-20.0
X13.5Y-41.1
X14.4Y-13.4
X14.587Y-7.987
X14.6Y-9.1
X14.8Y-90.2
X14.8Y-91.2
X14.9Y-17.7
X14.9Y-20.0
X15.2Y-56.5
X15.5Y-37.0
X15.5Y-90.7
X15.7Y-13.3
X15.8Y-7.8
X15.8Y-8.7
X16.0Y-17.7
X16.5Y-37.0
X17.5Y-33.3
X17.5Y-34.2
X17.5Y-37.0
X18.0Y-20.0
X18.3Y-25.9
X18.3Y-29.9
X18.3Y-33.3
X18.3Y-71.2
X18.3Y-72.1
X18.4Y-76.1
X18.5Y-11.3
X18.5Y-12.3
X19.0Y-71.6
X19.3Y-11.3
X19.5Y-15.6
X19.5Y-65.3
X19.5Y-66.3
X19.5Y-67.3
X20.4Y-8.1
X20.4Y-17.7
X21.2Y-30.0
X21.9Y-32.8
X22.0Y-17.2
X22.0Y-53.9
X22.6Y-55.3
X23.3Y-19.7
X23.4Y-75.6
X23.4Y-76.5
X23.4Y-77.4
X24.0Y-38.9
X24.3Y-50.0
X24.4Y-59.4
X24.6Y-71.4
X25.1Y-72.1
X25.2Y-22.9
X25.2Y-89.0
X25.5Y-40.5
X25.5Y-71.4
X25.6Y-48.4
X25.7Y-89.8
X26.0Y-36.8
X26.1Y-51.6
X26.1Y-53.4
X26.2Y-21.7
X26.2Y-22.9
X26.2Y-89.0
X26.9Y-31.1
X27.5Y-38.5
X27.5Y-56.2
X27.7Y-32.1
X28.7Y-66.2
X28.8Y-13.2
X28.9Y-57.6
X29.1Y-79.9
X29.2Y-51.6
X29.2Y-53.4
X29.6Y-54.2
X30.2Y-6.1
X30.5Y-30.8
X30.9Y-5.7
X30.9Y-6.5
X30.9Y-22.1
X31.4Y-58.0
X31.5Y-55.2
X31.7Y-30.8
X31.9Y-22.1
X32.9Y-22.1
X34.5Y-55.2
X34.5Y-58.0
X35.0Y-75.0
X35.9Y-50.8
X35.9Y-75.0
X36.5Y-71.1
X36.5Y-72.0
X36.7Y-50.3
X36.7Y-51.3
X36.8Y-75.0
X37.2Y-71.5
X38.1Y-1.6
X38.3Y-63.7
X38.9Y-90.2
X38.9Y-91.0
X39.1Y-35.0
X39.2Y-63.7
X39.6Y-35.7
X39.6Y-90.6
X39.9Y-43.5
X40.0Y-35.0
X40.1Y-63.7
X40.2Y-38.8
X40.7Y-12.8
X41.4Y-12.4
X41.4Y-13.3
X41.5Y-83.0
X42.4Y-83.0
X43.3Y-83.0
X44.6Y-69.2
X44.7Y-48.1
X45.0Y-68.5
X45.4Y-69.2
X45.5Y-31.5
X46.5Y-32.3
X47.3Y-74.8
X47.3Y-75.7
X47.3Y-76.6
X48.0Y-51.6
X48.5Y-58.0
X48.8Y-50.7
X48.8Y-51.6
X49.3Y-89.3
X49.6Y-30.7
X49.6Y-62.7
X50.0Y-88.9
X50.0Y-89.7
X51.1Y-30.7
X51.8Y-55.2
X51.8Y-58.0
X52.1Y-22.1
X53.1Y-22.1
X53.6Y-55.2
X53.6Y-58.0
X54.1Y-7.7
X54.1Y-13.9
X54.1Y-14.9
X54.1Y-22.1
X55.0Y-14.9
X55.1Y-51.0
X55.4Y-71.2
X55.4Y-72.1
X55.8Y-50.5
X55.8Y-51.4
X56.2Y-71.6
X56.5Y-58.0
X57.1Y-79.8
X58.0Y-69.1
X58.0Y-70.1
X58.0Y-73.8
X58.0Y-74.8
X58.2Y-55.2
X58.3Y-37.0
X58.4Y-58.9
X59.3Y-37.0
X59.3Y-55.2
X59.524Y-42.347
X59.8Y-12.6
X60.3Y-33.1
X60.3Y-34.0
X60.3Y-37.0
X60.3Y-56.9
X60.5Y-12.2
X60.5Y-13.0
X60.9Y-56.3
X61.0Y-33.5
X61.1Y-70.2
X61.2Y-73.7
X61.4Y-85.2
X61.9Y-69.8
X61.9Y-70.6
X61.9Y-74.4
X62.1Y-11.6
X62.7Y-90.1
X62.7Y-91.1
X62.9Y-3.3
X63.3Y-45.1
X63.6Y-90.6
X64.2Y-31.8
X65.6Y-32.2
X66.8Y-60.0
X68.2Y-80.5
X68.5Y-52.0
X68.5Y-53.0
X68.7Y-30.8
X69.1Y-80.5
X69.4Y-52.6
X70.0Y-80.5
X70.2Y-30.8
X70.9Y-18.5
X70.9Y-22.0
X71.9Y-18.5
X71.9Y-22.0
X72.9Y-18.5
X72.9Y-22.0
X73.2Y-14.0
X73.2Y-14.9
X73.7Y-56.2
X74.1Y-14.9
X74.2Y-51.0
X74.5Y-71.2
X74.5Y-72.0
X74.5Y-74.1
X74.6Y-56.2
X74.9Y-50.5
X74.9Y-51.4
X75.2Y-71.6
X75.5Y-56.2
X75.9Y-88.8
X76.3Y-85.5
X76.7Y-87.4
X76.9Y-82.9
X77.159Y-69.749
X77.6Y-83.6
X77.8Y-64.1
X78.0Y-70.6
X78.1Y-41.9
X78.4Y-37.0
X78.5Y-85.5
X78.9Y-12.8
X79.1Y-80.4
X79.4Y-33.1
X79.4Y-34.0
X79.4Y-37.0
X79.4Y-69.2
X79.6Y-12.4
X79.6Y-13.3
X79.6Y-85.5
X79.8Y-81.1
X80.1Y-33.5
X80.2Y-69.9
X80.4Y-37.0
X80.7Y-81.7
X81.4Y-3.2
X81.7Y-83.2
X82.0Y-45.0
X82.1Y-79.1
X82.3Y-83.8
X82.5Y-60.5
X82.7Y-69.0
X82.8Y-90.7
X83.0Y-83.1
X83.1Y-59.9
X83.1Y-73.0
X83.3Y-91.5
X83.6Y-69.0
X83.7Y-59.3
X83.8Y-31.7
X83.8Y-90.7
X84.3Y-83.9
X84.7Y-32.3
X84.9Y-78.3
X84.9Y-79.2
X85.1Y-84.7
X85.7Y-77.9
X85.7Y-80.5
X85.7Y-85.3
X85.8Y-18.5
X85.8Y-22.4
X85.8Y-79.6
X86.1Y-60.5
X86.3Y-86.0
X86.5Y-81.4
X86.6Y-82.3
X86.8Y-18.5
X86.8Y-22.4
X87.0Y-86.6
X87.3Y-81.7
X87.4Y-87.6
X87.4Y-88.7
X87.5Y-52.0
X87.5Y-53.1
X87.7Y-30.8
X87.8Y-18.5
X87.8Y-22.4
X88.3Y-87.1
X88.3Y-88.2
X88.3Y-89.2
X88.5Y-53.1
X89.0Y-30.7
X90.9Y-77.6
X91.0Y-80.5
X91.1Y-56.2
X91.8Y-37.0
X91.8Y-41.1
X92.0Y-56.2
X92.2Y-14.0
X92.2Y-14.9
X92.5Y-79.1
X92.7Y-73.9
X92.769Y-87.4
X92.8Y-37.0
X92.9Y-56.2
X93.0Y-14.9
X93.2Y-51.0
X93.4Y-71.3
X93.4Y-72.2
X93.4Y-74.5
X93.5Y-76.7
X93.7Y-82.8
X93.8Y-37.0
X93.9Y-50.5
X93.9Y-51.4
X94.1Y-76.1
X94.1Y-92.9
X95.1Y-63.7
X95.2Y-18.5
X95.7Y-73.7
X96.128Y-69.919
X96.2Y-18.5
X96.2Y-75.1
X96.4Y-73.3
X96.4Y-74.2
X97.2Y-18.5
X97.9Y-12.8
X98.1Y-75.2
X98.3Y-91.6
X98.4Y-33.2
X98.4Y-34.1
X98.5Y-89.3
X98.6Y-12.4
X98.6Y-13.3
X99.0Y-90.7
X99.1Y-33.6
X99.3Y-70.3
X99.8Y-55.8
X100.0Y-69.8
X100.0Y-70.7
X100.4Y-37.0
X100.5Y-3.2
X100.6Y-92.5
X100.7Y-55.8
X101.4Y-37.0
X101.5Y-92.5
X101.6Y-55.8
X101.7Y-32.1
X101.8Y-69.1
X102.369Y-88.931
X102.4Y-37.0
X102.4Y-92.5
X102.7Y-69.1
X103.1Y-74.3
X103.2Y-32.1
X103.2Y-60.5
X103.2Y-90.8
X105.9Y-85.6
X106.0Y-48.2
X106.5Y-52.1
X106.5Y-52.9
X106.7Y-85.6
X106.7Y-86.4
X106.9Y-30.8
X107.4Y-52.9
X107.4Y-80.1
X107.4Y-90.3
X107.7Y-60.2
X108.1Y-30.8
X108.6Y-80.5
X108.6Y-87.1
X109.3Y-41.9
X110.2Y-85.4
X110.2Y-86.6
X110.3Y-18.5
X110.3Y-22.2
X111.1Y-67.5
X111.1Y-85.4
X111.3Y-14.0
X111.3Y-14.8
X111.3Y-18.5
X112.0Y-67.5
X112.0Y-85.4
X112.1Y-14.8
X112.1Y-37.0
X112.1Y-50.9
X112.3Y-18.5
X112.9Y-50.5
X112.9Y-51.4
X112.9Y-67.5
X112.9Y-85.4
X113.1Y-37.0
X113.8Y-85.4
X114.1Y-37.0
X114.7Y-67.5
X114.7Y-89.4
X116.4Y-42.1
X117.0Y-12.8
X117.3Y-82.7
X117.4Y-33.2
X117.4Y-34.1
X117.4Y-37.0
X117.7Y-12.3
X117.7Y-13.2
X118.1Y-33.6
X118.2Y-70.2
X118.4Y-37.0
X118.9Y-69.8
X118.9Y-70.6
X119.4Y-37.0
X119.5Y-3.2
X119.8Y-74.2
X120.9Y-69.2
X121.2Y-31.6
X121.7Y-69.2
X121.7Y-89.7
X122.5Y-32.3
X123.7Y-55.5
X123.7Y-56.4
X124.5Y-56.4
X125.1Y-60.9
X125.7Y-30.7
X127.1Y-30.7
X127.654Y-80.045
X128.9Y-22.2
X129.3Y-18.5
X130.3Y-13.9
X130.3Y-14.9
X130.3Y-18.5
X131.0Y-50.9
X131.2Y-14.9
X131.3Y-18.5
X131.7Y-71.2
X131.7Y-72.1
X131.9Y-50.5
X131.9Y-51.4
X132.5Y-71.6
X133.4Y-63.8
X135.2Y-41.8
X135.5Y-37.0
X136.0Y-12.7
X136.2Y-56.2
X136.5Y-33.2
X136.5Y-34.1
X136.5Y-37.0
X136.6Y-70.2
X136.7Y-12.3
X136.7Y-13.1
X137.1Y-56.2
X137.2Y-33.6
X137.3Y-69.7
X137.3Y-70.7
X137.4Y-90.2
X137.4Y-91.1
X137.5Y-37.0
X138.0Y-56.2
X138.2Y-91.1
X138.3Y-73.0
X138.8Y-3.3
X139.9Y-69.1
X140.7Y-31.7
X140.7Y-69.1
X141.7Y-32.4
X143.9Y-48.5
X144.2Y-60.9
X144.7Y-52.1
X144.7Y-53.0
X144.9Y-30.7
X145.6Y-53.0
X146.3Y-30.7
X148.3Y-18.5
X149.0Y-22.3
X149.1Y-64.2
X149.3Y-14.0
X149.3Y-14.9
X149.3Y-18.5
X150.2Y-14.9
X150.3Y-18.5
X150.3Y-51.0
X150.6Y-71.2
X150.6Y-72.0
X151.0Y-50.5
X151.0Y-51.4
X151.3Y-71.6
X153.5Y-41.5
X154.5Y-37.0
X155.1Y-12.8
X155.5Y-33.1
X155.5Y-34.0
X155.5Y-37.0
X155.5Y-82.4
X155.5Y-87.0
X155.6Y-70.2
X155.7Y-56.2
X155.8Y-12.4
X155.8Y-13.2
X156.2Y-33.5
X156.3Y-69.8
X156.3Y-70.6
X156.4Y-82.4
X156.4Y-87.0
X156.5Y-37.0
X156.7Y-56.2
X157.3Y-82.4
X157.3Y-87.0
X157.4Y-73.0
X157.7Y-56.2
X157.8Y-3.1
X159.0Y-69.2
X159.9Y-69.2
X160.0Y-31.7
X160.9Y-32.4
X162.7Y-48.8
X163.1Y-60.8
X163.7Y-52.1
X163.7Y-53.0
X164.1Y-30.7
X164.6Y-53.0
X165.3Y-30.7
X167.3Y-18.5
X167.8Y-22.3
X168.3Y-14.0
X168.3Y-15.0
X168.3Y-18.5
X169.2Y-15.0
X169.2Y-50.9
X169.3Y-18.5
X169.6Y-71.2
X169.6Y-72.0
X170.0Y-50.5
X170.0Y-51.4
X170.3Y-71.6
X171.6Y-64.1
X172.9Y-41.6
X173.6Y-37.0
X174.1Y-12.8
X174.6Y-33.2
X174.6Y-34.1
X174.6Y-37.0
X174.7Y-56.2
X174.7Y-70.2
X174.8Y-12.3
X174.8Y-13.2
X175.3Y-33.6
X175.4Y-69.8
X175.4Y-70.6
X175.6Y-37.0
X175.7Y-56.2
X176.4Y-73.0
X176.7Y-3.3
X176.7Y-56.2
X178.0Y-69.2
X178.8Y-69.2
X179.2Y-31.6
X179.4Y-84.1
X179.4Y-85.0
X179.4Y-85.9
X179.9Y-32.3
X182.0Y-60.9
X182.7Y-52.1
X182.7Y-53.0
X183.1Y-30.7
X183.6Y-53.0
X184.3Y-30.7
X186.4Y-18.5
X186.5Y-22.2
X187.1Y-64.1
X187.4Y-14.2
X187.4Y-15.1
X187.4Y-18.5
X188.2Y-15.1
X188.4Y-18.5
X188.4Y-50.9
X188.6Y-71.1
X188.6Y-72.1
X189.1Y-50.5
X189.1Y-51.4
X189.3Y-71.6
X190.7Y-73.0
X192.2Y-41.5
X192.6Y-37.0
X193.2Y-12.8
X193.6Y-33.1
X193.6Y-34.0
X193.6Y-37.0
X193.9Y-12.4
X193.9Y-13.3
X194.2Y-56.2
X194.3Y-33.5
X194.6Y-37.0
X194.6Y-70.2
X195.2Y-56.2
X195.3Y-69.8
X195.3Y-70.6
X195.8Y-79.4
X196.1Y-3.3
X196.2Y-56.2
X197.0Y-69.1
X197.7Y-31.6
X197.8Y-69.1
X198.8Y-32.3
X201.8Y-30.8
X201.8Y-52.1
X201.8Y-53.0
X202.3Y-61.4
X202.7Y-53.0
X203.1Y-30.8
X205.4Y-18.5
X205.7Y-22.5
X205.9Y-82.9
X206.3Y-90.2
X206.3Y-91.1
X206.4Y-14.3
X206.4Y-15.1
X206.4Y-18.5
X207.2Y-15.1
X207.2Y-91.1
X207.4Y-18.5
X207.5Y-51.0
X207.7Y-71.2
X207.7Y-72.1
X208.2Y-50.5
X208.2Y-51.4
X208.4Y-71.6
X209.6Y-63.9
X209.8Y-73.0
X211.7Y-37.0
X211.8Y-42.0
X212.2Y-12.8
X212.7Y-33.1
X212.7Y-34.0
X212.7Y-37.0
X212.9Y-12.3
X212.9Y-13.3
X213.4Y-33.5
X213.5Y-56.2
X213.6Y-70.2
X213.7Y-37.0
X214.4Y-69.8
X214.4Y-70.7
X214.5Y-56.2
X215.0Y-3.3
X215.0Y-79.5
X215.5Y-56.2
X216.1Y-69.2
X216.6Y-31.6
X216.9Y-69.2
X217.8Y-32.2
X220.7Y-76.1
X220.8Y-52.1
X220.8Y-53.0
X221.1Y-61.3
X221.2Y-30.7
X221.6Y-53.0
X221.7Y-76.1
X222.4Y-30.7
X222.7Y-76.1
X224.5Y-18.5
X224.5Y-22.3
X225.4Y-90.2
X225.4Y-91.1
X225.5Y-14.1
X225.5Y-15.0
X225.5Y-18.5
X225.7Y-82.9
X226.2Y-91.1
X226.3Y-15.0
X226.5Y-18.5
X226.5Y-51.0
X226.7Y-71.2
X226.7Y-72.0
X227.2Y-50.5
X227.2Y-51.4
X227.4Y-71.6
X230.7Y-41.9
X230.8Y-37.0
X231.3Y-12.8
X231.8Y-33.1
X231.8Y-34.0
X231.8Y-37.0
X232.0Y-12.3
X232.0Y-13.3
X232.4Y-56.2
X232.4Y-63.1
X232.5Y-33.5
X232.8Y-37.0
X233.4Y-56.2
X233.4Y-63.1
X233.9Y-79.4
X234.4Y-56.2
X234.4Y-63.1
X234.6Y-3.5
X235.5Y-73.0
X236.1Y-31.5
X236.9Y-32.3
X239.6Y-70.6
X239.9Y-52.1
X239.9Y-53.0
X240.0Y-30.7
X240.5Y-69.8
X240.5Y-70.6
X240.5Y-76.1
X240.7Y-53.0
X241.4Y-30.7
X241.5Y-76.1
X242.3Y-69.2
X242.5Y-76.1
X243.2Y-69.2
X243.6Y-18.5
X244.4Y-90.2
X244.4Y-91.1
X244.6Y-13.9
X244.6Y-14.9
X244.6Y-18.5
X244.7Y-82.6
X245.0Y-22.7
X245.3Y-91.1
X245.5Y-13.9
X245.6Y-18.5
X245.6Y-51.0
X246.3Y-50.5
X246.3Y-51.5
X246.3Y-60.4
X247.0Y-8.7
X247.9Y-73.0
X248.0Y-8.7
X249.0Y-8.7
X249.5Y-42.0
X249.8Y-37.0
X250.8Y-33.1
X250.8Y-34.0
X250.8Y-37.0
X251.0Y-0.8
X251.4Y-56.2
X251.5Y-33.5
X251.8Y-37.0
X252.4Y-56.2
X252.9Y-71.1
X252.9Y-72.1
X253.4Y-56.2
X253.5Y-79.6
X253.7Y-71.6
X255.3Y-76.1
X255.6Y-0.8
X256.3Y-76.1
X257.3Y-76.1
X259.0Y-52.2
X259.0Y-53.1
X259.2Y-62.0
X259.2Y-63.0
X259.2Y-64.0
X259.7Y-52.6
X259.8Y-12.8
X259.9Y-34.4
X259.9Y-35.3
X259.9Y-36.3
X260.3Y-41.5
X260.3Y-42.5
X260.3Y-43.5
X260.5Y-12.3
X260.5Y-13.2
X261.8Y-34.4
X261.8Y-35.3
X261.8Y-36.3
X262.4Y-82.9
X262.5Y-3.3
X263.5Y-90.3
X263.5Y-91.1
X264.3Y-62.0
X264.3Y-63.0
X264.3Y-64.0
X264.3Y-91.1
X264.6Y-73.0
X266.1Y-70.2
X266.8Y-69.8
X266.8Y-70.6
X267.0Y-41.3
X267.7Y-40.8
X267.7Y-41.7
X268.5Y-69.2
X269.3Y-69.2
X271.2Y-19.5
X271.2Y-26.1
X272.2Y-19.5
X272.2Y-26.1
X272.4Y-60.5
X272.6Y-79.6
X273.2Y-14.0
X273.2Y-14.9
X273.2Y-19.5
X273.2Y-26.1
X273.5Y-48.0
X273.5Y-49.0
X273.5Y-50.0
X273.5Y-56.2
X274.1Y-14.0
X274.5Y-56.2
X274.8Y-0.9
X275.5Y-56.2
X276.6Y-8.5
X277.1Y-48.0
X277.1Y-49.0
X277.1Y-50.0
X277.6Y-8.5
X278.1Y-76.1
X278.4Y-35.2
X278.6Y-8.5
X279.1Y-71.2
X279.1Y-72.0
X279.1Y-76.1
X279.4Y-0.9
X279.8Y-36.6
X279.8Y-71.6
X280.1Y-76.1
X280.5Y-42.6
X280.5Y-43.5
X280.7Y-34.2
X281.0Y-87.1
X281.3Y-38.0
X281.3Y-43.5
X281.3Y-63.7
X282.2Y-35.6
X282.6Y-90.3
X282.6Y-91.1
X283.4Y-91.1
X283.5Y-36.9
X284.2Y-32.1
X284.5Y-68.9
X285.0Y-31.7
X285.0Y-32.6
X285.0Y-34.6
X285.0Y-35.5
X285.0Y-36.5
X285.8Y-69.9
X287.0Y-34.5
X287.0Y-35.5
X287.0Y-36.5
X287.5Y-74.1
X287.8Y-31.1
X288.4Y-12.8
X288.4Y-69.1
X288.5Y-51.1
X288.6Y-88.9
X289.1Y-12.4
X289.1Y-13.2
X289.2Y-50.6
X289.2Y-51.5
X289.2Y-69.1
X289.3Y-88.5
X289.3Y-89.4
X290.6Y-37.0
X290.6Y-75.1
X291.2Y-56.2
X291.4Y-41.5
X291.5Y-60.4
X291.6Y-37.0
X291.6Y-75.1
X292.1Y-22.5
X292.2Y-56.2
X292.3Y-3.5
X292.6Y-37.0
X292.6Y-75.1
X292.7Y-18.1
X293.2Y-56.2
X293.7Y-18.1
X294.7Y-18.1
X296.2Y-34.8
X296.2Y-72.7
X296.7Y-73.4
X296.8Y-35.5
X297.2Y-72.7
X297.3Y-34.8
X300.2Y-53.9
X300.3Y-69.3
X300.3Y-89.6
X300.6Y-13.3
X300.6Y-15.7
X300.7Y-54.6
X300.7Y-88.9
X300.9Y-1.1
X301.1Y-53.9
X301.1Y-89.6
T3
X0.7Y-11.6
X0.7Y-15.6
X1.7Y-17.3
X2.6Y-59.6
X2.6Y-70.1
X2.6Y-86.6
X5.1Y-21.5
X5.1Y-29.1
X5.1Y-36.3
X6.9Y-1.0
X12.2Y-18.9
X15.7Y-30.4
X15.9Y-18.9
X17.4Y-31.9
X17.8Y-24.6
X18.6Y-79.7
X19.6Y-60.6
X20.8Y-15.6
X21.2Y-51.0
X22.5Y-60.6
X22.6Y-2.4
X22.7Y-7.0
X23.3Y-79.7
X23.9Y-41.6
X24.0Y-7.0
X24.0Y-8.3
X24.0Y-23.1
X24.0Y-67.6
X24.4Y-16.6
X24.9Y-31.0
X25.73Y-33.53
X26.5Y-16.6
X26.7Y-34.5
X27.1Y-27.3
X27.1Y-58.0
X28.5Y-1.0
X28.8Y-74.1
X28.9Y-17.8
X28.9Y-22.1
X28.9Y-29.6
X30.7Y-59.3
X30.9Y-54.2
X31.6Y-2.7
X31.6Y-62.9
X32.3Y-15.1
X32.6Y-53.2
X33.7Y-53.2
X34.0Y-19.8
X34.1Y-35.8
X34.8Y-6.7
X34.8Y-13.2
X34.9Y-63.3
X34.9Y-66.8
X35.2Y-41.2
X36.3Y-19.8
X36.6Y-5.8
X36.7Y-52.6
X36.9Y-83.6
X38.4Y-16.9
X41.3Y-59.7
X41.3Y-62.3
X41.3Y-65.8
X43.1Y-11.2
X43.1Y-67.7
X43.2Y-31.9
X43.9Y-86.5
X44.8Y-78.7
X45.1Y-24.5
X45.6Y-27.8
X45.9Y-33.53
X45.9Y-73.4
X45.9Y-81.5
X45.9Y-85.1
X47.6Y-43.6
X47.9Y-29.6
X47.9Y-38.3
X48.7Y-49.5
X49.1Y-11.2
X49.1Y-12.9
X50.2Y-86.7
X50.4Y-6.1
X50.7Y-49.5
X50.85Y-60.25
X51.8Y-41.3
X52.3Y-12.9
X52.7Y-48.6
X55.9Y-70.0
X56.6Y-73.4
X57.1Y-58.8
X57.4Y-10.6
X57.4Y-17.2
X58.2Y-80.4
X60.7Y-55.2
X62.6Y-89.1
X63.1Y-71.7
X63.1Y-72.7
X64.6Y-17.2
X64.6Y-21.9
X64.6Y-27.4
X65.3Y-86.5
X65.3Y-89.7
X66.9Y-29.7
X67.3Y-67.0
X69.3Y-40.8
X70.5Y-59.3
X71.8Y-50.9
X73.5Y-66.3
X76.5Y-12.6
X79.5Y-66.0
X80.4Y-73.2
X81.0Y-61.1
X81.1Y-67.7
X83.6Y-21.4
X83.7Y-28.6
X86.0Y-29.7
X88.3Y-40.6
X89.7Y-82.2
X90.8Y-11.0
X90.8Y-22.1
X90.8Y-50.7
X95.5Y-12.6
X95.7Y-72.1
X96.0Y-90.3
X96.7Y-58.2
X96.9Y-28.6
X97.4Y-41.4
X100.2Y-60.2
X100.2Y-67.8
X100.8Y-33.5
X101.1Y-75.1
X101.4Y-58.2
X101.4Y-71.9
X101.6Y-48.0
X103.1Y-22.2
X103.1Y-28.4
X103.1Y-33.5
X105.1Y-29.7
X105.4Y-60.1
X105.8Y-51.0
X106.6Y-84.3
X107.3Y-43.5
X108.0Y-51.0
X109.8Y-50.7
X109.8Y-57.2
X110.8Y-57.2
X112.8Y-57.2
X112.8Y-63.8
X113.9Y-57.2
X113.9Y-63.8
X114.5Y-12.6
X115.9Y-28.7
X116.0Y-91.6
X116.7Y-64.4
X118.6Y-91.3
X119.2Y-67.8
X119.8Y-81.2
X120.6Y-48.9
X121.3Y-57.2
X122.3Y-23.6
X122.3Y-27.8
X124.0Y-29.7
X125.5Y-52.3
X125.5Y-59.2
X128.8Y-39.7
X133.6Y-12.6
X135.7Y-64.7
X137.6Y-79.7
X138.3Y-67.8
X139.3Y-79.7
X140.9Y-23.3
X140.9Y-27.4
X143.1Y-29.7
X145.3Y-59.2
X145.6Y-41.9
X147.9Y-48.8
X152.6Y-12.6
X154.9Y-63.5
X157.4Y-67.8
X159.9Y-23.3
X159.9Y-26.6
X162.2Y-29.7
X164.6Y-42.0
X165.1Y-59.2
X167.0Y-48.8
X171.7Y-12.6
X174.0Y-64.4
X176.4Y-67.8
X178.9Y-22.3
X178.9Y-26.0
X181.2Y-29.7
X181.2Y-44.9
X183.8Y-59.2
X186.0Y-48.8
X190.7Y-12.6
X190.7Y-86.8
X193.0Y-63.5
X195.4Y-67.8
X197.9Y-22.4
X197.9Y-26.3
X200.2Y-29.7
X200.2Y-44.7
X203.4Y-59.2
X205.1Y-48.8
X209.8Y-12.6
X209.8Y-86.8
X212.2Y-63.8
X214.5Y-67.8
X217.0Y-22.4
X217.0Y-25.9
X219.3Y-29.7
X219.3Y-44.9
X222.5Y-59.2
X224.1Y-48.8
X228.8Y-12.6
X228.8Y-86.8
X236.0Y-22.4
X236.0Y-26.1
X237.4Y-64.2
X238.3Y-29.7
X238.3Y-44.7
X240.7Y-67.8
X242.3Y-59.2
X243.2Y-48.8
X247.9Y-86.7
X257.4Y-12.6
X262.3Y-24.8
X262.3Y-28.6
X262.3Y-40.3
X262.3Y-46.9
X262.3Y-52.6
X262.3Y-59.8
X262.3Y-66.0
X264.6Y-68.8
X264.6Y-78.9
X283.2Y-85.8
X283.7Y-24.1
X283.7Y-26.9
X283.7Y-60.1
X283.7Y-65.0
X284.1Y-43.3
X285.9Y-50.7
X286.0Y-10.7
X286.0Y-29.7
X286.0Y-67.8
X291.7Y-77.3
X293.9Y-39.2
X297.0Y-39.2
X300.0Y-77.3
T5
X68.675Y-84.325
X68.675Y-86.865
X71.215Y-84.325
X71.215Y-86.865
X73.755Y-84.325
X73.755Y-86.865
T6
X41.35Y-75.0
X46.15Y-18.0
X108.0Y-37.0
X184.0Y-37.0
X284.0Y-18.0
X284.0Y-75.0
T4
X12.71Y-0.83G85X12.71Y-1.43
G05
X12.71Y-4.76G85X12.71Y-5.86
G05
X21.35Y-0.83G85X21.35Y-1.43
G05
X21.35Y-4.76G85X21.35Y-5.86
G05
T6
X20.25Y-84.5G85X22.75Y-84.5
G05
X22.25Y-27.5G85X24.75Y-27.5
G05
X22.25Y-84.5G85X24.75Y-84.5
G05
X184.75Y-84.5G85X187.25Y-84.5
G05
X257.25Y-27.5G85X259.75Y-27.5
G05
T0
M30
