M48
; DRILL file {KiCad (6.0.10)} date Thu Feb 16 19:17:14 2023
; FORMAT={-:-/ absolute / metric / decimal}
; #@! TF.CreationDate,2023-02-16T19:17:14+01:00
; #@! TF.GenerationSoftware,Kicad,Pcbnew,(6.0.10)
; #@! TF.FileFunction,NonPlated,1,2,NPTH
FMAT,2
METRIC
; #@! TA.AperFunction,NonPlated,NPTH,ComponentDrill
T1C0.650
; #@! TA.AperFunction,NonPlated,NPTH,ComponentDrill
T2C1.702
; #@! TA.AperFunction,NonPlated,NPTH,ComponentDrill
T3C2.500
; #@! TA.AperFunction,NonPlated,NPTH,ComponentDrill
T4C3.000
; #@! TA.AperFunction,NonPlated,NPTH,ComponentDrill
T5C3.048
; #@! TA.AperFunction,NonPlated,NPTH,ComponentDrill
T6C3.988
%
G90
G05
T1
X14.14Y-4.78
X19.92Y-4.78
T2
X2.92Y-8.6
X5.301Y-65.75
X5.301Y-84.8
X7.682Y-27.65
X10.064Y-46.7
X13.08Y-8.6
X15.461Y-65.75
X15.461Y-84.8
X17.842Y-27.65
X20.224Y-46.7
X21.97Y-8.6
X26.732Y-65.75
X29.114Y-84.8
X31.495Y-27.65
X32.13Y-8.6
X36.258Y-46.7
X36.892Y-65.75
X39.274Y-84.8
X41.02Y-8.6
X41.655Y-27.65
X45.782Y-65.75
X46.417Y-46.7
X50.545Y-27.65
X51.18Y-8.6
X52.926Y-84.8
X55.307Y-46.7
X55.942Y-65.75
X60.07Y-8.6
X60.705Y-27.65
X63.086Y-84.8
X64.832Y-65.75
X65.468Y-46.7
X69.595Y-27.65
X70.23Y-8.6
X74.358Y-46.7
X74.992Y-65.75
X79.12Y-8.6
X79.755Y-27.65
X83.882Y-65.75
X84.517Y-46.7
X88.645Y-27.65
X89.28Y-8.6
X93.407Y-46.7
X94.042Y-65.75
X98.17Y-8.6
X98.805Y-27.65
X102.932Y-65.75
X103.567Y-46.7
X107.695Y-27.65
X108.33Y-8.6
X112.457Y-46.7
X113.093Y-65.75
X117.22Y-8.6
X117.855Y-27.65
X121.982Y-65.75
X122.617Y-46.7
X124.364Y-84.8
X126.745Y-27.65
X127.38Y-8.6
X131.507Y-46.7
X132.142Y-65.75
X134.524Y-84.8
X136.27Y-8.6
X136.905Y-27.65
X141.032Y-65.75
X141.667Y-46.7
X145.795Y-27.65
X146.43Y-8.6
X150.558Y-46.7
X151.192Y-65.75
X155.32Y-8.6
X155.955Y-27.65
X160.082Y-65.75
X160.718Y-46.7
X164.845Y-27.65
X165.48Y-8.6
X169.607Y-46.7
X170.242Y-65.75
X174.37Y-8.6
X175.005Y-27.65
X179.132Y-65.75
X179.767Y-46.7
X183.895Y-27.65
X184.53Y-8.6
X188.657Y-46.7
X189.292Y-65.75
X193.42Y-8.6
X193.42Y-84.8
X194.055Y-27.65
X198.183Y-65.75
X198.817Y-46.7
X202.945Y-27.65
X203.58Y-8.6
X203.58Y-84.8
X207.707Y-46.7
X208.343Y-65.75
X212.47Y-8.6
X212.47Y-84.8
X213.105Y-27.65
X217.232Y-65.75
X217.867Y-46.7
X221.995Y-27.65
X222.63Y-8.6
X222.63Y-84.8
X226.757Y-46.7
X227.392Y-65.75
X231.52Y-8.6
X231.52Y-84.8
X232.155Y-27.65
X236.917Y-46.7
X241.045Y-27.65
X241.68Y-8.6
X241.68Y-84.8
X243.426Y-65.75
X245.807Y-46.7
X250.57Y-84.8
X251.205Y-27.65
X253.586Y-65.75
X255.968Y-46.7
X260.095Y-8.6
X260.73Y-84.8
X267.239Y-37.175
X269.62Y-65.75
X269.62Y-84.8
X270.255Y-8.6
X277.399Y-37.175
X279.78Y-65.75
X279.78Y-84.8
X288.67Y-8.6
X288.67Y-27.65
X288.67Y-46.7
X288.67Y-65.75
X288.67Y-84.8
X298.83Y-8.6
X298.83Y-27.65
X298.83Y-46.7
X298.83Y-65.75
X298.83Y-84.8
T3
X127.0Y-46.7
X127.0Y-48.7
T4
X5.46Y-13.68
X6.571Y-63.21
X6.571Y-82.26
X8.952Y-25.11
X11.334Y-44.16
X11.81Y-11.14
X12.921Y-60.67
X12.921Y-79.72
X15.302Y-22.57
X17.684Y-41.62
X24.51Y-13.68
X28.002Y-63.21
X30.384Y-82.26
X30.86Y-11.14
X32.765Y-25.11
X34.352Y-60.67
X36.734Y-79.72
X37.527Y-44.16
X39.115Y-22.57
X42.29Y-6.06
X43.877Y-41.62
X47.052Y-63.21
X48.64Y-3.52
X51.815Y-25.11
X53.402Y-60.67
X54.196Y-82.26
X56.578Y-44.16
X58.165Y-22.57
X60.546Y-79.72
X61.34Y-6.06
X62.927Y-41.62
X66.102Y-63.21
X67.69Y-3.52
X70.865Y-25.11
X72.453Y-60.67
X75.627Y-44.16
X77.215Y-22.57
X80.39Y-6.06
X81.977Y-41.62
X85.152Y-63.21
X86.74Y-3.52
X89.915Y-25.11
X91.502Y-60.67
X94.677Y-44.16
X96.265Y-22.57
X99.44Y-6.06
X101.027Y-41.62
X104.203Y-63.21
X105.79Y-3.52
X108.965Y-25.11
X110.552Y-60.67
X113.727Y-44.16
X115.315Y-22.57
X118.49Y-6.06
X120.078Y-41.62
X123.252Y-63.21
X124.84Y-3.52
X125.634Y-82.26
X128.015Y-25.11
X129.602Y-60.67
X131.984Y-79.72
X132.778Y-44.16
X134.365Y-22.57
X137.54Y-6.06
X139.127Y-41.62
X142.302Y-63.21
X143.89Y-3.52
X147.065Y-25.11
X148.653Y-60.67
X151.827Y-44.16
X153.415Y-22.57
X156.59Y-6.06
X158.177Y-41.62
X161.352Y-63.21
X162.94Y-3.52
X166.115Y-25.11
X167.702Y-60.67
X170.877Y-44.16
X172.465Y-22.57
X175.64Y-6.06
X177.227Y-41.62
X180.403Y-63.21
X181.99Y-3.52
X185.165Y-25.11
X186.752Y-60.67
X189.927Y-44.16
X191.515Y-22.57
X194.69Y-6.06
X194.69Y-82.26
X196.278Y-41.62
X199.452Y-63.21
X201.04Y-3.52
X201.04Y-79.72
X204.215Y-25.11
X205.802Y-60.67
X208.977Y-44.16
X210.565Y-22.57
X213.74Y-6.06
X213.74Y-82.26
X215.327Y-41.62
X218.502Y-63.21
X220.09Y-3.52
X220.09Y-79.72
X223.265Y-25.11
X224.852Y-60.67
X228.028Y-44.16
X229.615Y-22.57
X232.79Y-6.06
X232.79Y-82.26
X234.377Y-41.62
X239.14Y-3.52
X239.14Y-79.72
X242.315Y-25.11
X244.696Y-63.21
X247.077Y-44.16
X248.665Y-22.57
X251.046Y-60.67
X251.84Y-82.26
X253.427Y-41.62
X258.19Y-79.72
X261.365Y-6.06
X267.715Y-3.52
X268.509Y-34.635
X270.89Y-63.21
X270.89Y-82.26
X274.859Y-32.095
X277.24Y-60.67
X277.24Y-79.72
X289.94Y-6.06
X289.94Y-25.11
X289.94Y-44.16
X289.94Y-63.21
X289.94Y-82.26
X296.29Y-3.52
X296.29Y-22.57
X296.29Y-41.62
X296.29Y-60.67
X296.29Y-79.72
T5
X79.444Y-91.785
X179.444Y-91.785
X253.237Y-1.615
X265.334Y-25.237
X265.334Y-49.113
X277.113Y-1.615
T6
X8.0Y-8.6
X10.381Y-65.75
X10.381Y-84.8
X12.762Y-27.65
X15.144Y-46.7
X27.05Y-8.6
X31.812Y-65.75
X34.194Y-84.8
X36.575Y-27.65
X41.337Y-46.7
X46.1Y-8.6
X50.862Y-65.75
X55.625Y-27.65
X58.006Y-84.8
X60.387Y-46.7
X65.15Y-8.6
X69.912Y-65.75
X74.675Y-27.65
X79.438Y-46.7
X79.444Y-76.575
X84.2Y-8.6
X88.962Y-65.75
X93.725Y-27.65
X98.487Y-46.7
X103.25Y-8.6
X108.012Y-65.75
X112.775Y-27.65
X117.537Y-46.7
X122.3Y-8.6
X127.062Y-65.75
X129.444Y-84.8
X131.825Y-27.65
X136.588Y-46.7
X141.35Y-8.6
X146.112Y-65.75
X150.875Y-27.65
X155.637Y-46.7
X160.4Y-8.6
X165.162Y-65.75
X169.925Y-27.65
X174.688Y-46.7
X179.444Y-76.575
X179.45Y-8.6
X184.213Y-65.75
X188.975Y-27.65
X193.737Y-46.7
X198.5Y-8.6
X198.5Y-84.8
X203.262Y-65.75
X208.025Y-27.65
X212.787Y-46.7
X217.55Y-8.6
X217.55Y-84.8
X222.312Y-65.75
X227.075Y-27.65
X231.837Y-46.7
X236.6Y-8.6
X236.6Y-84.8
X246.125Y-27.65
X248.506Y-65.75
X250.887Y-46.7
X253.237Y-16.825
X255.65Y-84.8
X265.175Y-8.6
X272.319Y-37.175
X274.7Y-65.75
X274.7Y-84.8
X277.113Y-16.825
X280.544Y-25.237
X280.544Y-49.113
X293.75Y-8.6
X293.75Y-27.65
X293.75Y-46.7
X293.75Y-65.75
X293.75Y-84.8
T0
M30
